Format;Avi

File Size:821mb

Source:DVD9 cleared up the video some muxed audio to 5.1 came out real nice

Video: ID : 0
Format : MPEG-4 Visual
Format profile : Advanced Simple@L5
Format settings, BVOP : Yes
Format settings, QPel : No
Format settings, GMC : No warppoints
Format settings, Matrix : Default (H.263)
Codec ID : XVID
Codec ID/Hint : XviD
Duration : 1h 29mn
Bit rate : 889 Kbps
Width : 720 pixels
Height : 304 pixels
Display aspect ratio : 2.35:1
Frame rate : 25.000 fps
Color space : YUV
Chroma subsampling : 4:2:0
Bit depth : 8 bits
Scan type : Progressive
Bits/(Pixel*Frame) : 0.163
Stream size : 569 MiB (69%)
Writing library : XviD 1.2.1 (UTC 2008-12-04)

Audio: ID : 1
Format : AC-3
Format/Info : Audio Coding 3
Mode extension : CM (complete main)
Codec ID : 2000
Duration : 1h 29mn
Bit rate mode : Constant
Bit rate : 384 Kbps
Channel(s) : 6 channels
Channel positions : Front: L C R, Side: L R, LFE
Sampling rate : 48.0 KHz
Bit depth : 16 bits
Stream size : 245 MiB (30%)
Alignment : Aligned on interleaves
Interleave, duration : 32 ms (0.80 video frame)


Duration:1:29

Release Date:2010

Language:English

Plot: Rumpelstiltskin tricks a mid-life crisis burdened Shrek into allowing himself to be erased from existence and cast in a dark alternate timeline where Rumpel rules supreme.


Cast: Mike Myers ...
Shrek (voice)
Eddie Murphy Eddie Murphy ...
Donkey (voice)
Cameron Diaz Cameron Diaz ...
Princess Fiona (voice)
Antonio Banderas Antonio Banderas ...
Puss in Boots (voice)
Julie Andrews Julie Andrews ...
Queen (voice)
Jon Hamm Jon Hamm ...
Brogan (voice)
John Cleese John Cleese ...
King Harold (voice)

